<?xml version="1.0"?>
<svg xmlns="http://www.w3.org/2000/svg" xmlns:xlink="http://www.w3.org/1999/xlink" version="1.1" id="Layer_1" x="0px" y="0px" viewBox="0 0 512 512" style="enable-background:new 0 0 512 512;" xml:space="preserve" width="512px" height="512px" class=""><g><path style="fill:#2E90D3" d="M8.296,181.984c8.56-16.696,19.08-32.312,31.344-46.52" data-original="#2E90D3" class=""/><path style="fill:#0283EC" d="M256,0C114.616,0,0,114.616,0,256s114.616,256,256,256s256-114.616,256-256S397.384,0,256,0z" data-original="#25B6D2" class="" data-old_color="#25B6D2"/><g>
	<path style="fill:#FFFFFF" d="M212.264,44.728c-2.8-3.064-6.496-5.176-10.56-6.04c-6.944-1.896-14.296-1.6-14.152,1.192   c-6.856,0-9.72,2.68-9.856,6.264c-0.272,7.288,10.92,18.4,24.176,18.832C221.648,65.6,215.792,49.48,212.264,44.728z" data-original="#FFFFFF" class="active-path"/>
	<path style="fill:#FFFFFF" d="M387.312,74.688l-0.592-0.424c-3.016-2.176-6.08-4.272-9.208-6.296l-1.432-0.92   c-2.92-1.864-5.88-3.656-8.888-5.384l-1.68-0.968c-3.08-1.736-6.208-3.4-9.376-4.992c-0.448-0.224-0.888-0.464-1.336-0.688   c-7.376-3.648-14.944-6.888-22.68-9.696l-0.488-0.168c-3.544-1.264-7.128-2.448-10.752-3.552c-1.064-0.32-2.144-0.608-3.2-0.912   c-2.752-0.8-5.52-1.544-8.32-2.232c-1.36-0.336-2.728-0.64-4.096-0.944c-2.568-0.576-5.144-1.112-7.736-1.6   c-1.488-0.28-2.976-0.552-4.472-0.8c-2.568-0.432-5.152-0.8-7.752-1.144c-1.488-0.192-2.976-0.408-4.48-0.568   c-2.792-0.312-5.6-0.536-8.424-0.744c-1.304-0.096-2.6-0.224-3.912-0.296C264.336,32.136,260.184,32,256,32   c-4.696,0-9.344,0.192-13.968,0.48c-4,1.544-11.12,5.312-7.648,11.6c4.696,8.496,17.432,20.256,4.696,22.216   s-20.112,10.456-31.504,10.456s-40.216-11.76-41.56-3.264s-29.496,23.52-36.2,22.864s-10.056,11.76-28.152,11.76   c-5.128,0.096-10.24,0.704-15.248,1.808c-11.672,13.528-21.696,28.4-29.848,44.304c3.12,0.952,6.432,1.048,9.6,0.28   c17.432-3.92,40.216-27.44,56.304-15.68s25.472,16.984,24.128,39.2s-5.36,49.648,18.768,61.408s9.384,23.52,28.152,31.36   s44.24,11.76,50.944,16.984s18.736,16.976,18.736,16.976s-17.432,19.6-10.728,30.056s38.88,15.68,36.2,41.816   s-22.68,70.752-22.68,79.896s-1,22.456-1,22.456s30.832-11.76,37.536-24.8s34.4-50.088,42.448-54.008s32.176-19.6,40.216-35.28   s37.536-33.976,8.04-41.816s-32.176-32.664-54.968-33.976s-16.76-5.88-32.176-5.224s-25.472,7.84-32.176,9.144   s-15.416-1.304-16.76-7.84s-8.04-16.336-12.736-14.4s6.704-11.76,0-13.064s-13.312,9.144-20.4,9.144s-7.752-26.784-7.752-26.784   s40.216-4.576,42.232,0s12.064,15.024,15.416,9.8s-6.704-18.944-4.688-22.216s46.92-32,48.264-43.768s25.472-10.456,24.128-24.8   s-14.728-10.48-16.736-18.288s-10.728-16.336-17.432-8.496c-1.376,1.568-3.208,2.688-5.232,3.2c2.84-3.16,4.8-6.184,4.56-7.76   c-0.672-4.576,19.44-15.68,23.464-20.904s-25.472-22.216-36.864-26.136c-5.768-1.92-11.808-2.864-17.88-2.816   c-1.392-6.624,0.256-13.52,4.504-18.784c8-6.536,15.384,11.104,21.416,11.104s27.48,0.656,32.176,7.2S347,93.088,347,98.968   s8.04,45.032,26.808,41.144s19.44-15.68,28.152-18.296s17.432,7.2,34.184,3.264c-1.288-2.68-2.76-5.272-4.416-7.744   C418.936,101.16,403.992,86.816,387.312,74.688z M277.288,95.032c0-0.384-0.088-0.872-0.128-1.28   c2.184,0.936,4.48,1.592,6.832,1.936c6.704,0.656,9.384,16.336-4,26.136c-10.056,7.352-5.368,15.584-0.16,20.504   c-3.032,4.488-6.448,9.36-11.2,8.896c-9.288-1.904-17.736-6.712-24.128-13.72c-4-5.88,8.04-22.216,16.088-27.44   S277.952,104.8,277.288,95.032z" data-original="#FFFFFF" class="active-path"/>
</g><g>
	<path style="fill:#32BEA6" d="M317.664,40.704c1.072,0.304,2.152,0.592,3.2,0.912C319.816,41.288,318.736,41.008,317.664,40.704z" data-original="#32BEA6" class=""/>
	<path style="fill:#32BEA6" d="M280.8,33.408c1.504,0.168,2.984,0.376,4.48,0.568C283.792,33.784,282.312,33.6,280.8,33.408z" data-original="#32BEA6" class=""/>
	<path style="fill:#32BEA6" d="M305.248,37.52c1.368,0.312,2.736,0.616,4.096,0.944C308,38.136,306.616,37.832,305.248,37.52z" data-original="#32BEA6" class=""/>
	<path style="fill:#32BEA6" d="M376.088,67.056l1.432,0.92L376.088,67.056z" data-original="#32BEA6" class=""/>
	<path style="fill:#32BEA6" d="M386.72,74.272l0.592,0.424L386.72,74.272z" data-original="#32BEA6" class=""/>
	<path style="fill:#32BEA6" d="M331.632,45.168l0.488,0.168L331.632,45.168z" data-original="#32BEA6" class=""/>
	<path style="fill:#32BEA6" d="M268.472,32.368c1.312,0.072,2.608,0.2,3.912,0.296C271.08,32.568,269.784,32.44,268.472,32.368z" data-original="#32BEA6" class=""/>
	<path style="fill:#32BEA6" d="M293.032,35.12c1.496,0.248,2.984,0.52,4.472,0.8C296.024,35.64,294.528,35.368,293.032,35.12z" data-original="#32BEA6" class=""/>
	<path style="fill:#32BEA6" d="M354.8,55.032c0.448,0.224,0.888,0.456,1.336,0.688C355.688,55.496,355.248,55.256,354.8,55.032z" data-original="#32BEA6" class=""/>
	<path style="fill:#32BEA6" d="M365.52,60.704l1.68,0.968L365.52,60.704z" data-original="#32BEA6" class=""/>
	<path style="fill:#32BEA6" d="M387.312,74.688c16.68,12.128,31.624,26.48,44.416,42.656l0,0   C418.944,101.16,403.992,86.808,387.312,74.688z" data-original="#32BEA6" class=""/>
	<path style="fill:#32BEA6" d="M332.128,45.336c7.728,2.808,15.296,6.048,22.672,9.696   C347.424,51.384,339.856,48.144,332.128,45.336z" data-original="#32BEA6" class=""/>
	<path style="fill:#32BEA6" d="M256,32c4.184,0,8.336,0.136,12.472,0.368C264.336,32.136,260.184,32,256,32z" data-original="#32BEA6" class=""/>
	<path style="fill:#32BEA6" d="M367.2,61.672c3.008,1.728,5.968,3.52,8.888,5.384C373.168,65.192,370.2,63.4,367.2,61.672z" data-original="#32BEA6" class=""/>
	<path style="fill:#32BEA6" d="M377.52,68c3.12,2.024,6.192,4.128,9.208,6.296C383.712,72.104,380.64,70.008,377.52,68z" data-original="#32BEA6" class=""/>
	<path style="fill:#32BEA6" d="M256,32c-4.696,0-9.344,0.192-13.968,0.48l0,0C246.656,32.192,251.304,32,256,32z" data-original="#32BEA6" class=""/>
	<path style="fill:#32BEA6" d="M356.136,55.72c3.168,1.6,6.296,3.264,9.376,4.992C362.432,58.976,359.312,57.312,356.136,55.72z" data-original="#32BEA6" class=""/>
	<path style="fill:#32BEA6" d="M285.288,33.976c2.592,0.344,5.184,0.712,7.752,1.144C290.472,34.688,287.88,34.32,285.288,33.976z" data-original="#32BEA6" class=""/>
	<path style="fill:#32BEA6" d="M320.88,41.6c3.624,1.096,7.208,2.288,10.752,3.56C328.088,43.888,324.504,42.704,320.88,41.6z" data-original="#32BEA6" class=""/>
	<path style="fill:#32BEA6" d="M272.384,32.664c2.824,0.208,5.6,0.432,8.424,0.744C278.016,33.096,275.2,32.872,272.384,32.664z" data-original="#32BEA6" class=""/>
	<path style="fill:#32BEA6" d="M297.504,35.92c2.6,0.488,5.176,1.024,7.736,1.6C302.68,36.944,300.104,36.408,297.504,35.92z" data-original="#32BEA6" class=""/>
	<path style="fill:#32BEA6" d="M309.344,38.472c2.8,0.688,5.6,1.44,8.32,2.232C314.904,39.912,312.136,39.152,309.344,38.472z" data-original="#32BEA6" class=""/>
</g></g> </svg>
