<?xml version="1.0"?>
<svg xmlns="http://www.w3.org/2000/svg" height="512px" viewBox="-88 0 512 512.00034" width="512px" class=""><g><path d="m287.160156 49.898438c-31.167968-31.566407-72.75-49.285157-117.078125-49.882813-44.6875-.582031-86.964843 16.316406-119.179687 47.652344-32.222656 31.34375-50.292969 73.1875-50.886719 117.824219-.582031 43.691406 15.558594 85.28125 45.441406 117.097656 17.089844 18.191406 26.5 41.847656 26.5 66.605468v56.417969c0 25.535157 18.277344 46.875 42.4375 51.640625v1.371094c0 29.429688 23.945313 53.375 53.375 53.375 29.433594 0 53.375-23.945312 53.375-53.375v-1.371094c24.160157-4.765625 42.4375-26.105468 42.4375-51.640625v-56.417969c0-24.8125 9.347657-48.398437 26.324219-66.417968 29.425781-31.238282 45.632812-72.078125 45.632812-115.007813 0-44.410156-17.183593-86.269531-48.378906-117.871093zm-159.753906 147.546874h-14.484375c-7.988281 0-14.484375-6.5-14.484375-14.484374 0-7.988282 6.496094-14.484376 14.484375-14.484376 7.984375 0 14.484375 6.5 14.484375 14.484376zm30.386719 30.386719h19.953125v106.171875h-19.953125zm32.964843 230.792969c0 12.675781-10.3125 22.988281-22.988281 22.988281s-22.988281-10.3125-22.988281-22.988281v-.371094h45.976562zm42.4375-53.011719c0 12.269531-9.984374 22.253907-22.253906 22.253907h-86.34375c-12.269531 0-22.253906-9.984376-22.253906-22.253907v-41.222656h130.851562zm34.59375-143.671875c-18.808593 19.964844-30.492187 45.125-33.695312 72.0625h-25.960938v-106.171875h14.484376c24.742187 0 44.871093-20.128906 44.871093-44.871093 0-24.742188-20.128906-44.871094-44.871093-44.871094-24.742188 0-44.871094 20.128906-44.871094 44.871094v14.484374h-19.953125v-14.484374c0-24.742188-20.128907-44.871094-44.871094-44.871094s-44.871094 20.128906-44.871094 44.871094c0 24.742187 20.128907 44.871093 44.871094 44.871093h14.484375v106.171875h-25.964844c-3.222656-26.902344-14.953125-52.113281-33.832031-72.21875-24.472656-26.050781-37.683594-60.105468-37.207031-95.890625.484375-36.511719 15.289062-70.765625 41.6875-96.445312 26.398437-25.675781 61.019531-39.550781 97.582031-39.050781 74.703125 1.011718 135.480469 62.636718 135.480469 137.371093 0 35.152344-13.269532 68.59375-37.363282 94.171875zm-59.65625-64.496094v-14.484374c0-7.988282 6.5-14.484376 14.484376-14.484376 7.988281 0 14.484374 6.5 14.484374 14.484376 0 7.984374-6.496093 14.484374-14.484374 14.484374zm0 0" data-original="#000000" class="active-path" data-old_color="#000000" fill="#FF0089"/></g> </svg>
