<?xml version="1.0"?>
<svg xmlns="http://www.w3.org/2000/svg" height="512px" viewBox="0 0 459.8 459.8" width="512px" class="hovered-paths"><g><path d="m425.300781 177.601562 34.5 52.296876-34.5 52.300781 3.398438 62.601562-55.699219 28.199219-28.199219 55.699219-62.601562-3.398438-52.300781 34.5-52.296876-34.5-62.601562 3.398438-28.199219-55.699219-55.699219-28.199219 3.398438-62.601562-34.5-52.300781 34.5-52.296876-3.398438-62.601562 55.699219-28.199219 28.199219-55.699219 62.601562 3.398438 52.296876-34.5 52.300781 34.5 62.601562-3.398438 28.199219 55.699219 55.699219 28.199219zm0 0" fill="#00acea" data-original="#00ACEA" class="hovered-path active-path" style="fill:#FF0089" data-old_color="#00acea"/><path d="m369.300781 229.898438c0 76.988281-62.414062 139.402343-139.402343 139.402343-76.988282 0-139.398438-62.414062-139.398438-139.402343 0-76.988282 62.410156-139.398438 139.398438-139.398438 76.988281 0 139.402343 62.410156 139.402343 139.398438zm0 0" fill="#00efd1" data-original="#00EFD1" class="" data-old_color="#00efd1" style="fill:#FF0089"/><path d="m211 277.398438c-2.703125 0-5.296875-1.078126-7.199219-3l-41.5-42.597657c-3.839843-3.949219-3.75-10.261719.199219-14.101562 3.949219-3.835938 10.261719-3.75 14.101562.199219l34.597657 35.601562 72.101562-68.101562c4.003907-3.78125 10.316407-3.601563 14.097657.402343 3.785156 4.003907 3.605468 10.316407-.398438 14.097657l-79.101562 74.800781c-1.878907 1.734375-4.339844 2.699219-6.898438 2.699219zm0 0" fill="#00acea" data-original="#00ACEA" class="hovered-path active-path" style="fill:#FF0089" data-old_color="#00acea"/></g> </svg>
